<?xml version="1.0" encoding="UTF-8"?>
<!DOCTYPE svg PUBLIC "-//W3C//DTD SVG 1.1//EN" "http://www.w3.org/Graphics/SVG/1.1/DTD/svg11.dtd">
<svg xmlns="http://www.w3.org/2000/svg" version="1.1" width="114px" height="14px" style="shape-rendering:geometricPrecision; text-rendering:geometricPrecision; image-rendering:optimizeQuality; fill-rule:evenodd; clip-rule:evenodd" xmlns:xlink="http://www.w3.org/1999/xlink">
<g><path style="opacity:0.761" fill="#000000" d="M 22.5,-0.5 C 26.8333,-0.5 31.1667,-0.5 35.5,-0.5C 35.5,0.5 35.5,1.5 35.5,2.5C 23.1377,2.83307 22.8044,3.66641 34.5,5C 36.7355,7.58513 37.0688,10.4185 35.5,13.5C 30.8333,13.5 26.1667,13.5 21.5,13.5C 21.5,12.5 21.5,11.5 21.5,10.5C 25.226,10.8226 28.8927,10.4892 32.5,9.5C 29.5535,8.67855 26.5535,8.17855 23.5,8C 21.2645,5.41487 20.9312,2.58154 22.5,-0.5 Z"/></g>
<g><path style="opacity:0.755" fill="#000000" d="M 38.5,-0.5 C 42.8333,-0.5 47.1667,-0.5 51.5,-0.5C 52.8333,4.16667 52.8333,8.83333 51.5,13.5C 47.1667,13.5 42.8333,13.5 38.5,13.5C 37.1667,8.83333 37.1667,4.16667 38.5,-0.5 Z M 41.5,2.5 C 43.8333,2.5 46.1667,2.5 48.5,2.5C 48.5,5.16667 48.5,7.83333 48.5,10.5C 46.1667,10.5 43.8333,10.5 41.5,10.5C 41.5,7.83333 41.5,5.16667 41.5,2.5 Z"/></g>
<g><path style="opacity:0.739" fill="#000000" d="M 53.5,-0.5 C 54.8333,-0.5 56.1667,-0.5 57.5,-0.5C 57.5,3.16667 57.5,6.83333 57.5,10.5C 60.1667,10.5 62.8333,10.5 65.5,10.5C 65.5,11.5 65.5,12.5 65.5,13.5C 61.8333,13.5 58.1667,13.5 54.5,13.5C 53.6167,8.89694 53.2834,4.23027 53.5,-0.5 Z"/></g>
<g><path style="opacity:0.782" fill="#000000" d="M 67.5,-0.5 C 71.5,-0.5 75.5,-0.5 79.5,-0.5C 77.2829,1.07994 74.6163,2.07994 71.5,2.5C 74.0865,3.48002 76.7531,3.81335 79.5,3.5C 79.5,4.5 79.5,5.5 79.5,6.5C 76.8333,6.5 74.1667,6.5 71.5,6.5C 71.5,7.83333 71.5,9.16667 71.5,10.5C 74.1667,10.5 76.8333,10.5 79.5,10.5C 79.5,11.5 79.5,12.5 79.5,13.5C 75.8333,13.5 72.1667,13.5 68.5,13.5C 67.6167,8.89694 67.2834,4.23027 67.5,-0.5 Z"/></g>
<g><path style="opacity:0.984" fill="#5a80ce" d="M 1.5,-0.5 C 1.83333,-0.5 2.16667,-0.5 2.5,-0.5C 3.5,0.833333 4.5,2.16667 5.5,3.5C 3.5,3.5 1.5,3.5 -0.5,3.5C -0.5,2.83333 -0.5,2.16667 -0.5,1.5C 0.5,1.16667 1.16667,0.5 1.5,-0.5 Z"/></g>
<g><path style="opacity:1" fill="#34a6b0" d="M 2.5,-0.5 C 6.83333,-0.5 11.1667,-0.5 15.5,-0.5C 15.4894,1.01739 14.8228,2.18405 13.5,3C 10.854,3.49742 8.1873,3.66409 5.5,3.5C 4.5,2.16667 3.5,0.833333 2.5,-0.5 Z"/></g>
<g><path style="opacity:1" fill="#a17979" d="M 89.5,-0.5 C 92.1667,-0.5 94.8333,-0.5 97.5,-0.5C 97.5,-0.166667 97.5,0.166667 97.5,0.5C 96.8333,1.16667 96.1667,1.83333 95.5,2.5C 93.3792,2.32526 91.3792,2.65859 89.5,3.5C 89.1583,2.66175 88.4916,2.32842 87.5,2.5C 88.1667,1.5 88.8333,0.5 89.5,-0.5 Z"/></g>
<g><path style="opacity:0.078" fill="#6c71dc" d="M -0.5,4.5 C 2.16667,4.5 4.83333,4.5 7.5,4.5C 8.5,5.83333 9.5,7.16667 10.5,8.5C 6.51282,8.99031 2.84616,8.32364 -0.5,6.5C -0.5,5.83333 -0.5,5.16667 -0.5,4.5 Z"/></g>
<g><path style="opacity:1" fill="#3c9bb8" d="M 7.5,4.5 C 10.9079,3.82801 13.5745,4.82801 15.5,7.5C 13.9547,8.45189 12.288,8.78522 10.5,8.5C 9.5,7.16667 8.5,5.83333 7.5,4.5 Z"/></g>
<g><path style="opacity:1" fill="#6478bf" d="M 97.5,0.5 C 99.9223,1.69231 100.922,3.69231 100.5,6.5C 100.333,7.83333 100.167,9.16667 100,10.5C 98.955,11.3734 98.1217,12.3734 97.5,13.5C 94.8333,13.5 92.1667,13.5 89.5,13.5C 86.4664,10.2129 85.7997,6.54624 87.5,2.5C 88.4916,2.32842 89.1583,2.66175 89.5,3.5C 88.375,4.65225 88.375,5.65225 89.5,6.5C 90.3065,7.72813 91.3065,8.72813 92.5,9.5C 93.1667,13.5 93.8333,13.5 94.5,9.5C 95.6935,8.72813 96.6935,7.72813 97.5,6.5C 98.7152,5.22104 98.3818,4.22104 96.5,3.5C 96.5,2.83333 96.1667,2.5 95.5,2.5C 96.1667,1.83333 96.8333,1.16667 97.5,0.5 Z"/></g>
<g><path style="opacity:1" fill="#c4b0c1" d="M 96.5,3.5 C 96.5858,4.4959 96.2524,5.32924 95.5,6C 96.0944,6.46434 96.7611,6.63101 97.5,6.5C 96.6935,7.72813 95.6935,8.72813 94.5,9.5C 93.8333,9.5 93.1667,9.5 92.5,9.5C 91.3065,8.72813 90.3065,7.72813 89.5,6.5C 91.3786,6.60682 91.7119,6.10682 90.5,5C 91.676,3.08577 92.676,3.25244 93.5,5.5C 94.2652,4.38809 95.2652,3.72142 96.5,3.5 Z"/></g>
<g><path style="opacity:1" fill="#f6b540" d="M 96.5,3.5 C 98.3818,4.22104 98.7152,5.22104 97.5,6.5C 96.7611,6.63101 96.0944,6.46434 95.5,6C 96.2524,5.32924 96.5858,4.4959 96.5,3.5 Z"/></g>
<g><path style="opacity:1" fill="#e2a342" d="M 95.5,2.5 C 96.1667,2.5 96.5,2.83333 96.5,3.5C 95.2652,3.72142 94.2652,4.38809 93.5,5.5C 92.676,3.25244 91.676,3.08577 90.5,5C 91.7119,6.10682 91.3786,6.60682 89.5,6.5C 88.375,5.65225 88.375,4.65225 89.5,3.5C 91.3792,2.65859 93.3792,2.32526 95.5,2.5 Z"/></g>
<g><path style="opacity:1" fill="#d78322" d="M 92.5,9.5 C 93.1667,9.5 93.8333,9.5 94.5,9.5C 93.8333,13.5 93.1667,13.5 92.5,9.5 Z"/></g>
<g><path style="opacity:0.918" fill="#5287c8" d="M 9.5,9.5 C 11.604,9.2011 13.604,9.53443 15.5,10.5C 14.8075,11.5178 14.1408,12.5178 13.5,13.5C 13.1667,13.5 12.8333,13.5 12.5,13.5C 11.5,12.1667 10.5,10.8333 9.5,9.5 Z"/></g>
<g><path style="opacity:0.655" fill="#825ced" d="M 9.5,9.5 C 10.5,10.8333 11.5,12.1667 12.5,13.5C 8.16667,13.5 3.83333,13.5 -0.5,13.5C -0.5,12.8333 -0.5,12.1667 -0.5,11.5C 2.50464,9.70057 5.83798,9.03391 9.5,9.5 Z"/></g>
</svg>
